<?xml version="1.0" encoding="utf-8"?>
<!-- Generator: Adobe Illustrator 24.0.1, SVG Export Plug-In . SVG Version: 6.00 Build 0)  -->
<svg version="1.1" id="Layer_1" xmlns="http://www.w3.org/2000/svg" xmlns:xlink="http://www.w3.org/1999/xlink" x="0px" y="0px"
	 viewBox="0 0 512 512" style="enable-background:new 0 0 512 512;" xml:space="preserve">
<style type="text/css">
	.st0{fill:#4285F4;}
	.st1{fill:#0073E6;}
</style>
<title>google-scholar</title>
<g>
	<path class="st0" d="M233,153c-49,12-23,109,38,99C316,239,289,142,233,153z"/>
	<path class="st1" d="M435.2,0H76.8C34.4,0,0,34.4,0,76.8c0,0,0,0,0,0v358.4C0,477.6,34.4,512,76.8,512c0,0,0,0,0,0h358.4
		c42.4,0,76.8-34.4,76.8-76.8c0,0,0,0,0,0V76.8C512,34.4,477.6,0,435.2,0C435.2,0,435.2,0,435.2,0z M382,160v103c-1,11-21,13-23,0
		V160c0.2-3.6,2.1-6.9,5-9l1-16l-45,38c4,15,8,26,6,43c-4,24-24,34-39,51c-7,12-2,22,21,40c21,17,35,36,31,71c-9,35-52,55-90,54
		c-29,0-88-9-92-54c0-41,60-66,103-67c-11-12-14-21-7-39c-37-3-73-22-78-67h-69l107-94h180l-16,16v25C380,153,382,157,382,160z"/>
	<path class="st0" d="M195,373c-1,26,37,39,81,30c51-15,50-65-10-78C230,325,195,348,195,373z"/>
</g>
</svg>
