<svg id="Layer_1" data-name="Layer 1" xmlns="http://www.w3.org/2000/svg" viewBox="0 0 512 512">
  <title>google-scholar</title>
  <g>
    <path d="M233,153c-49,12-23,109,38,99C316,239,289,142,233,153Z" fill="#4285f4"/>
    <path d="M435.2,0H76.8A76.79,76.79,0,0,0,0,76.8V435.2A76.79,76.79,0,0,0,76.8,512H435.2A76.79,76.79,0,0,0,512,435.2V76.8A76.79,76.79,0,0,0,435.2,0ZM382,160V263c-1,11-21,13-23,0V160a11.93,11.93,0,0,1,5-9l1-16-45,38c4,15,8,26,6,43-4,24-24,34-39,51-7,12-2,22,21,40,21,17,35,36,31,71-9,35-52,55-90,54-29,0-88-9-92-54,0-41,60-66,103-67-11-12-14-21-7-39-37-3-73-22-78-67H106l107-94H393l-16,16v25C380,153,382,157,382,160Z" fill="#4285f4"/>
    <path d="M195,373c-1,26,37,39,81,30,51-15,50-65-10-78C230,325,195,348,195,373Z" fill="#4285f4"/>
  </g>
</svg>
